<?xml version="1.0" encoding="UTF-8"?>
<svg id="Layer_1" xmlns="http://www.w3.org/2000/svg" version="1.1" viewBox="0 0 168 72.3">
  <!-- Generator: Adobe Illustrator 29.7.0, SVG Export Plug-In . SVG Version: 2.1.1 Build 138)  -->
  <defs>
    <style>
      .st0, .st1 {
        fill: #1b2e38;
      }

      .st1 {
        fill-rule: evenodd;
      }
    </style>
  </defs>
  <g id="Layer_2">
    <g id="Layer_1-2">
      <path class="st0" d="M67.8,32.6h-3l-2.1-5.3h-2.6v5.3h-2.8v-14.1h6.2c2.4,0,4.4,2,4.4,4.4,0,1.6-.9,3.1-2.3,3.9l2.3,5.8ZM65,22.9c0-.9-.7-1.6-1.6-1.6h-3.4v3.2h3.4c.9,0,1.6-.7,1.6-1.6"/>
      <polygon class="st0" points="80.6 18.5 74.2 33.1 67.8 18.5 70.9 18.5 74.2 26.1 77.6 18.5 80.6 18.5"/>
      <path class="st0" d="M69.4,44.5c.1,3.4-2.5,6.3-5.9,6.4s-6.3-2.5-6.4-5.9c0-.2,0-.3,0-.5v-8.2h2.8v8.2c0,1.9,1.5,3.4,3.4,3.4,0,0,0,0,0,0,.9,0,1.8-.4,2.4-1,.6-.6,1-1.5,1-2.4v-8.2h2.8v8.2Z"/>
      <polygon class="st0" points="84 50.9 73.7 42 73.7 50.4 70.9 50.4 70.9 35.8 81.2 44.8 81.2 36.3 84 36.3 84 50.9"/>
      <rect class="st0" x="85.8" y="36.3" width="2.9" height="14.1"/>
      <polygon class="st0" points="102.1 36.3 95.6 50.9 89.2 36.3 92.3 36.3 95.6 43.9 99 36.3 102.1 36.3"/>
      <polygon class="st0" points="111.7 50.4 102.4 50.4 102.4 36.3 111.2 36.3 111.2 39.1 105.2 39.1 105.2 41.9 110.8 41.9 110.8 44.7 105.2 44.7 105.2 47.6 111.7 47.6 111.7 50.4"/>
      <path class="st0" d="M123.9,50.4h-3l-2.2-5.3h-2.6v5.3h-2.8v-14.1h6.2c2.4,0,4.4,2,4.4,4.4h0c0,.8-.2,1.6-.6,2.3-.4.7-1,1.2-1.7,1.6l2.3,5.8ZM121.1,40.7c0-.9-.7-1.6-1.6-1.6,0,0,0,0,0,0h-3.4v3.2h3.4c.9,0,1.6-.7,1.6-1.6h0"/>
      <path class="st0" d="M135.9,46.2c0,.8-.2,1.5-.6,2.2-.4.6-1,1.2-1.7,1.5-1,.5-2,.8-3.1.8-1.1,0-2.2-.3-3.2-.8-1.1-.5-1.9-1.5-2.2-2.8l2.7-.9c0,.5.3,1,.7,1.2,1.2.6,2.6.6,3.8,0,.5-.2.8-.7.7-1.2,0-.5-.3-.9-.8-1l-4.4-1.8c-.6-.3-1.2-.7-1.5-1.3-.4-.6-.6-1.3-.6-2,0-.7.2-1.4.6-2,.4-.6.9-1.1,1.5-1.4,1.6-.8,3.4-.8,5,0,.9.4,1.6,1.2,1.9,2.1l-2.6.9c0-.2-.3-.4-.5-.5-.4-.2-.8-.3-1.3-.3-.5,0-.9.1-1.3.3-.3.2-.6.5-.5.9,0,.3.2.6.5.7l4.4,1.8c.7.3,1.3.7,1.7,1.4.4.6.6,1.4.6,2.2"/>
      <rect class="st0" x="137.4" y="36.3" width="2.9" height="14.1"/>
      <polygon class="st0" points="154.5 39.1 149.4 39.1 149.4 50.4 146.6 50.4 146.6 39.1 141.5 39.1 141.5 36.3 154.5 36.3 154.5 39.1"/>
      <polygon class="st0" points="168 36.3 162.7 44.2 162.7 50.4 159.9 50.4 159.9 44.2 154.6 36.3 158 36.3 161.3 41.3 164.6 36.3 168 36.3"/>
      <path class="st1" d="M38.4,57.2c-2.4-6.3-9.5-9.3-15.8-6.9-3.2,1.2-5.7,3.7-6.9,6.9.3.2.6.4,1,.6,2.1-5.7,8.4-8.7,14.1-6.6,3.1,1.1,5.5,3.5,6.6,6.6.3-.2.7-.4,1-.6"/>
      <path class="st1" d="M35.3,58.9c-5.2,2.4-11.3,2.4-16.5,0,.1-.4.2-.7.4-1.1,5,2.3,10.7,2.3,15.7,0,.2.3.3.7.4,1.1M8.3,19.5v21.4c0,6.4,3.3,12.4,8.7,15.8-.2.3-.3.7-.5,1.1-5.8-3.6-9.4-10-9.4-16.9v-22.5h1.2v1.1ZM46.9,18.3v22.5c0,6.9-3.6,13.2-9.4,16.9-.1-.4-.3-.7-.5-1.1,5.4-3.4,8.7-9.4,8.7-15.8v-22.5h1.1Z"/>
      <path class="st1" d="M35.4,58.9c-.3.2-.7.3-1.1.5-1.2-4-5.5-6.3-9.5-5-2.4.7-4.3,2.6-5,5-.4-.1-.7-.3-1.1-.5,1.5-4.6,6.4-7.1,11-5.6,2.7.9,4.8,3,5.6,5.6"/>
      <rect class="st0" x="8.3" y="31.8" width="8.7" height="1.1"/>
      <path class="st1" d="M25.9,25.3c-4.6.4-8.5,3.4-10.2,7.6h1.2c1.6-3.6,5-6.1,8.9-6.5v-1.1ZM38.4,32.9c-1.7-4.3-5.6-7.2-10.2-7.6v1.1c3.9.4,7.3,2.9,8.9,6.5h1.2Z"/>
      <rect class="st0" x="37.8" y="31.8" width="8.7" height="1.1"/>
      <path class="st1" d="M23.9,26.7c-2.6,10.2,3.5,12.1,2.5,20-.2,1.3-.5,2.5-1.1,3.6,0,.3-.4.5-.7.4-.3,0-.5-.4-.4-.7,0,0,0-.2.1-.2,1.7-4.1,1.2-6.7-.4-10.8-2-5.3-2.5-7.1-1.1-12.6,0-.3.4-.5.7-.4.3,0,.5.4.4.7,0,0,0,0,0,0"/>
      <path class="st1" d="M15.9,32.5c1.1,8.7,8.4,4.1,7.4,18,0,.3-.3.5-.6.5-.3,0-.5-.3-.5-.6h0c1-13.3-6.2-8.1-7.4-17.8,0-.3.2-.6.5-.6.3,0,.6.2.6.5"/>
      <path class="st1" d="M8.7,32.5c1.6,6.3,3.4,6.3,8,9.7,3.7,2.8,4.1,5.2,4.1,9.7,0,.3-.3.5-.6.5-.3,0-.6-.3-.5-.6,0,0,0,0,0,0,0-4-.2-6.2-3.6-8.7-4.9-3.7-6.7-3.7-8.5-10.4,0-.3.1-.6.4-.7.3,0,.6.1.7.5"/>
      <path class="st1" d="M8.4,40.1c4.5,7.6,8,2.3,11,13.2,0,.3,0,.6-.4.7-.3,0-.6,0-.7-.4,0,0,0,0,0,0-2.8-10.3-6.2-4.8-10.9-12.9-.1-.3,0-.6.2-.8,0,0,0,0,0,0,.3-.1.6,0,.8.2"/>
      <path class="st1" d="M9.3,47c1.6,3.2,6.1,1.8,8.7,7.9.1.3,0,.6-.3.7-.3.1-.6,0-.7-.3h0c-2.4-5.7-6.7-3.9-8.7-7.9-.1-.3,0-.6.3-.7.3-.1.6,0,.7.3,0,0,0,0,0,0"/>
      <path class="st1" d="M30.2,26.7c2.6,10.2-3.5,12.1-2.5,20,.2,1.3.5,2.5,1.1,3.6.1.3.5.4.8.3,0,0,0,0,0,0,.3-.1.4-.5.3-.8-1.7-4.1-1.2-6.7.4-10.8,2.1-5.3,2.5-7.1,1.1-12.6,0-.3-.4-.5-.7-.4-.3,0-.5.4-.4.7"/>
      <path class="st1" d="M38.3,32.5c-1.1,8.7-8.4,4.1-7.4,18,0,.3.3.5.6.5.3,0,.5-.3.5-.6-1-13.3,6.2-8.1,7.4-17.8,0-.3-.2-.6-.5-.6s-.6.2-.6.5"/>
      <path class="st1" d="M45.4,32.5c-1.7,6.3-3.4,6.3-8,9.7-3.7,2.8-4.2,5.2-4.1,9.7,0,.3.3.6.6.5,0,0,0,0,0,0,.3,0,.6-.3.5-.6,0,0,0,0,0,0,0-4,.2-6.2,3.6-8.7,4.9-3.7,6.7-3.7,8.5-10.4,0-.3-.1-.6-.5-.7-.3,0-.6.1-.7.4h0"/>
      <path class="st1" d="M45.8,40.1c-4.5,7.6-8.1,2.3-11,13.2,0,.3,0,.6.4.7.3,0,.6,0,.7-.4,0,0,0,0,0,0,2.8-10.3,6.1-4.8,10.9-12.9.1-.3,0-.6-.2-.8,0,0,0,0,0,0-.3-.1-.6,0-.8.2"/>
      <path class="st1" d="M44.8,47c-1.5,3.2-6.1,1.8-8.7,7.9-.1.3,0,.6.3.7s.6,0,.7-.3h0c2.4-5.7,6.7-3.9,8.7-7.9.1-.3,0-.6-.3-.7s-.6,0-.7.3"/>
      <path class="st1" d="M11.3,14.3c4.7,0,9.7,1,13.5,3.6v-.9c-3.9-2.9-8.6-4.6-13.5-4.9v2.2ZM9.4,18.1c5.3-.5,11.1-.8,15.4,2v-.9c-4.2-3.2-10-4-15.4-3.8v2.6ZM25.9,21v11.5c-.4-.2-.8-.4-1.1-.6v-10.4c-4.7-3.7-11.7-2.6-17.6-2v-1.2h1v-3.9c.6,0,1.3,0,1.9-.1v-3.4c5.7.1,11.3,2.1,15.8,5.6v4.5h0Z"/>
      <path class="st1" d="M42.8,14.3c-4.7,0-9.7,1-13.5,3.6v-.9c3.9-2.9,8.6-4.6,13.5-4.9v2.2ZM44.7,18.1c-5.3-.5-11.1-.8-15.4,2v-.9c4.2-3.2,10-4,15.4-3.8v2.6ZM28.2,21v11.5c.4-.1.8-.3,1.1-.6v-10.5c4.7-3.7,11.7-2.6,17.6-2v-1.2h-1v-3.9c-.6,0-1.3,0-1.9-.1v-3.4c-5.7.1-11.3,2.1-15.8,5.6v4.5h0Z"/>
      <path class="st1" d="M21.7,8.7c2.5-.3,6.5,2.3,5.8,5.2-3.4.7-5.6-2.5-5.8-5.2M21.5,7.6c1.5-.1,3,.3,4.3,1.2,1.8,1.2,3.3,3.2,2.7,5.4l-.2.7h-.7c-4,1-6.9-2.4-7.2-6.1v-1.1c0,0,1-.1,1-.1Z"/>
      <path class="st1" d="M32.4,8.7c-2.5-.3-6.4,2.3-5.8,5.2,3.4.7,5.6-2.5,5.8-5.2M32.6,7.6c-1.5-.1-3,.3-4.3,1.2-1.8,1.2-3.3,3.2-2.7,5.4l.2.7h.7c3.9,1,6.9-2.4,7.2-6.1v-1.1c0,0-1-.1-1-.1Z"/>
      <path class="st1" d="M16.5,1.1c.3,2.4,2.1,4.7,4.6,4.2.2-1.4-.8-2.6-1.9-3.4-.8-.6-1.8-.9-2.8-.9M16.1,0c1.3,0,2.6.3,3.8,1,1.6,1,2.8,2.8,2.3,4.7v.6c-.1,0-.7.1-.7.1-3.5.7-6-2.3-6.2-5.5V.1c0,0,.8-.1.8-.1Z"/>
      <path class="st1" d="M12.3,6.7c1.8-.8,5.4.2,5.5,2.6-2.4,1.3-4.8-.6-5.5-2.6M11.8,5.7c1.2-.5,2.5-.5,3.7-.1,1.8.4,3.2,1.8,3.5,3.7v.7l-.6.4c-2.9,1.6-6-.3-7.1-3.1l-.4-1,1-.5Z"/>
      <path class="st1" d="M24.6,3.3c-.1.8.2,1.6.8,2.2,0-.8-.2-1.6-.8-2.2M24,1.8c1.6.6,3,3.4,1.7,4.9-2.2-.7-2.4-3.2-1.7-4.9"/>
      <path class="st1" d="M37.6,1.1c-.3,2.4-2.1,4.7-4.6,4.2-.3-1.4.8-2.6,1.9-3.4.8-.6,1.8-.9,2.8-.9M38,0c-1.3,0-2.6.3-3.8,1-1.6,1-2.8,2.8-2.3,4.7v.6c.1,0,.7.1.7.1,3.4.7,6-2.3,6.2-5.5V0c0,0-.8,0-.8,0Z"/>
      <path class="st1" d="M41.8,6.7c-1.8-.8-5.4.2-5.5,2.6,2.4,1.3,4.8-.6,5.5-2.6M42.3,5.7c-1.2-.5-2.5-.5-3.7-.1-1.8.4-3.2,1.8-3.5,3.7v.7s.6.4.6.4c2.9,1.6,6-.3,7.1-3.1l.4-1-1-.5Z"/>
      <path class="st1" d="M29.6,3.3c.1.8-.2,1.6-.8,2.2,0-.8.2-1.6.8-2.2M30.1,1.8c-1.6.6-3,3.4-1.7,4.9,2.2-.7,2.5-3.2,1.7-4.9"/>
      <path class="st1" d="M27,17.9c.6,0,1.2-.2,1.8-.5v-.9c-.1,0-.5-.1-.5-.1-.7.6-1.8.6-2.5,0l-.4,1.1c.5.3,1,.4,1.6.4"/>
      <path class="st1" d="M27,32.7c.6,0,1.3-.2,1.8-.5v-.8c-.1,0-.5-.1-.5-.1-.7.6-1.8.6-2.5,0l-.4,1.1c.5.3,1,.5,1.6.5"/>
      <path class="st1" d="M46.1,58.7c0,0-.1,0-.2,0-11.9,5.9-25.8,5.9-37.7,0-.1,0-.2,0-.3,0-.1,0-.2.1-.2.2l-3.3,6.7c-.1.2,0,.5.2.6,14.2,7,30.8,7,45,0,.2,0,.3-.3.2-.5,0,0,0,0,0,0l-3.3-6.6c0,0-.1-.2-.2-.2h-.1M27.1,64c6.5,0,13-1.5,18.8-4.3l2.9,5.9c-13.7,6.7-29.7,6.7-43.5,0l2.9-5.9c5.9,2.8,12.3,4.3,18.8,4.3"/>
      <path class="st1" d="M4.5,54.3c0,0-.1,0-.2,0-.1,0-.2.2-.2.3,0,1.3-.2,2.6-.2,3.9-1.2.7-2.4,1.3-3.7,2C0,60.6,0,60.8,0,60.9c0,.1,0,.3.2.4,1.7,1.1,3.5,2.1,5.3,3,.1,0,.2,0,.3,0,.1,0,.2-.1.2-.2l2.2-4.5c1.5.7,3,1.4,4.6,1.9.1,0,.2,0,.3,0,0,0,.2-.1.2-.2l.7-1.9c0-.2,0-.4-.2-.5,0,0,0,0,0,0-3.2-1.1-6.2-2.6-9-4.5,0,0-.1,0-.2,0M1.2,61c1.1-.6,2.2-1.2,3.3-1.8.1,0,.2-.2.2-.3,0-1.1,0-2.2.2-3.3,2.6,1.7,5.4,3,8.3,4.1l-.4,1.1c-1.5-.6-3-1.2-4.5-1.9-.1,0-.2,0-.3,0-.1,0-.2.1-.2.2l-2.2,4.4c-1.5-.7-2.9-1.5-4.2-2.4"/>
      <path class="st1" d="M8.1,59.1c1.6.8,3.2,1.5,4.9,2.1.2-.6.4-1.3.7-1.9-1.9,0-3.7,0-5.6-.2"/>
      <path class="st1" d="M8.1,58.7c-.2,0-.4.2-.4.4,0,.1,0,.3.2.4,1.6.8,3.3,1.5,5,2.1.1,0,.2,0,.3,0,0,0,.2-.1.2-.2l.6-1.8c0,0,0-.1,0-.2,0-.2-.2-.4-.4-.4,0,0,0,0,0,0h0c-1.8,0-3.7,0-5.5-.2h0M12.8,60.6c-.8-.3-1.6-.6-2.4-1,.9,0,1.8,0,2.8,0l-.3,1Z"/>
      <path class="st1" d="M49.7,54.3c0,0-.2,0-.2,0-2.8,1.9-5.8,3.4-9,4.5-.2,0-.3.3-.3.5,0,0,0,0,0,0l.7,1.9c0,.1.1.2.2.2.1,0,.2,0,.3,0,1.6-.5,3.1-1.2,4.6-1.9l2.2,4.5c0,0,.1.2.2.2.1,0,.2,0,.3,0,1.8-.9,3.6-1.9,5.3-3.1.1,0,.2-.2.2-.4,0-.1,0-.3-.2-.3-1.2-.6-2.5-1.3-3.7-2,0-1.3,0-2.6-.2-3.9,0-.1,0-.3-.2-.3,0,0-.1,0-.2,0M41.1,59.5c2.9-1,5.7-2.4,8.3-4.1,0,1.1.1,2.2.2,3.3,0,.1,0,.3.2.3,1.1.6,2.2,1.2,3.3,1.8-1.4.9-2.8,1.7-4.2,2.4l-2.2-4.5c0,0-.1-.2-.2-.2-.1,0-.2,0-.3,0-1.5.7-2.9,1.4-4.5,1.9l-.4-1.1Z"/>
      <path class="st1" d="M46.1,59.1c-1.6.8-3.2,1.5-4.9,2.1l-.7-1.9c1.9,0,3.7,0,5.6-.2"/>
      <path class="st1" d="M46.1,58.7h0c-1.8.2-3.7.2-5.5.2-.2,0-.4.2-.4.4,0,0,0,.1,0,.2l.7,1.9c0,.1.1.2.2.2.1,0,.2,0,.3,0,1.7-.6,3.3-1.3,4.9-2.1.2,0,.3-.3.2-.5,0-.2-.2-.3-.4-.3h0M42.2,59.7h1.6c-.8.3-1.6.7-2.4,1l-.3-.9h1.1"/>
      <path class="st0" d="M21.4,68.5v-.8c0,0,.8,0,.8,0v.8c0,0-.8,0-.8,0ZM21.6,66.4v-.8c0,0,.8,0,.8,0v.8c0,0-.8,0-.8,0ZM20.3,65.7l-.7,3.2h-.6c0-.1.7-3.3.7-3.3h-.5c0-.1.1-.7.1-.7,1.5.3,1.5.3,1,.8M15.5,67.8c-.2,0-.4-.1-.6-.3-.1,0-.2-.3-.2-.4,0-.1,0-.2.2-.3,0,0,.2,0,.3,0,.2,0,.4.2.6.5.2,0,.4,0,.6,0,.1,0,.2-.2.2-.3,0,0,0-.1-.1-.2-.1,0-.2,0-.3,0,0,0-.2,0-.3,0-.2,0-.4-.3-.5-.5-.1-.2-.2-.5-.2-.8,0-.1.1-.2.2-.3.1,0,.3,0,.4,0l2.1.5v-.4c0,0-2.9-.7-2.9-.7l.2-.6,4.4.9v.5c-.1,0-.9-.2-.9-.2l-.6,3.2h-.6c0-.1.5-2.5.5-2.5l-1.9-.4c-.1,0-.2,0-.2,0,0,.1,0,.2.1.3,0,0,.1.2.2.2h.4c.1,0,.3,0,.4,0,.1,0,.2.1.3.2,0,.1,0,.3,0,.4,0,.2-.2.5-.4.6-.2.1-.5.2-.7.2l.6.5h0l-.5.3c-.2-.2-.5-.5-.7-.7M13.4,65.5l.4-1.3-1.2-.4-.3,1.1c0,.1,0,.3,0,.4,0,.1.2.2.3.3.3,0,.5,0,.8-.1M12.1,65.9c-.2-.1-.3-.3-.4-.5,0-.2,0-.5,0-.7l.3-1.1-.5-.2.2-.5,3.7,1.1-.2.5-.8-.2-.9,3.1-.6-.2.4-1.2-2.2.7v-.5c-.1,0,1-.4,1-.4Z"/>
      <path class="st0" d="M41.8,67.1l-.2-.7.7-.2.2.7-.7.2ZM41.3,65.1l-.2-.7.7-.2.2.7-.7.2ZM40.1,64.6l-.8.2.7,3.2h-.6c0,.1-.7-3-.7-3h-.5c0,.1-.1-.4-.1-.4l1.9-.5v.6ZM37.3,66.8l1.4,1.2-.4.4-2.4-2.1.4-.5.4.4c.1.1.3.2.4.2,0,0,.2,0,.2-.2,0,0,0-.2,0-.3l-.2-.9-1.6.4v-.4c0,0,2.8-.7,2.8-.7v.5c.1,0-.5.2-.5.2l.2.8c0,.2,0,.4,0,.6,0,.2-.2.3-.4.3,0,0-.2,0-.3,0M36,65.3l-.8.3.3,3.2h-.6c0,0-.3-3.2-.3-3.2h-.5v-.6c0,0,.5,0,.5,0-.1-.3-.3-.5-.6-.8-.2-.2-.5-.3-.7-.2-.1,0-.3,0-.4.2,0,0-.1.2-.1.3,0,.1,0,.3.2.4.1.1.3.2.4.3h-.6c-.3,0-.5-.3-.5-.7,0-.3,0-.5.2-.7.2-.2.5-.3.7-.3.4,0,.8.1,1.1.4.4.3.7.6.9,1.1h.8c0,0,.1.3.1.3ZM32,68.6c-.3,0-.5,0-.8-.2-.2-.1-.4-.3-.4-.6,0-.2,0-.5.2-.7-.4-.2-.7-.5-.8-1,0-.2,0-.4.2-.6.2-.2.4-.3.6-.3.2,0,.4,0,.6.1.1,0,.2.2.3.4,0,.2,0,.3-.2.4-.2.1-.3.2-.5.2v-.4c0,0,.1,0,.2,0,0,0,0-.2,0-.3,0,0,0,0,0,0-.2,0-.3,0-.5,0,0,0,0,.2,0,.2,0,.3.2.5.6.7.2-.1.5-.2.7-.2l.2.4c-.3,0-.5,0-.8.2-.2,0-.2.2-.2.4,0,.1,0,.2.2.2.1,0,.2,0,.4,0,.5,0,.8-.3,1-.8l-.2-1.5h-.6c0,0,0-.5,0-.5l2-.2v.6c0,0-.8,0-.8,0l.3,3.3h-.6c0,0-.1-1-.1-1-.2.4-.6.6-1,.6"/>
      <path class="st1" d="M21.1,65.7c-3.5-.5-7-1.3-10.4-2.6l.3-.6c3.3,1.2,6.7,2.1,10.2,2.5v.6ZM40.6,64.5c-2.7.8-5.5,1.3-8.4,1.5v-.6c2.7-.2,5.5-.7,8.3-1.5v.6Z"/>
      <polygon class="st1" points="26.2 65.3 26.6 66.5 27.8 66.5 26.8 67.2 27.2 68.4 26.2 67.6 25.2 68.4 25.6 67.2 24.6 66.5 25.8 66.5 26.2 65.3"/>
      <rect class="st0" x="56.9" y="55" width="111.1" height="2.3"/>
      <path class="st0" d="M60.7,65.7c.2-.1.3-.3.3-.5l.2-.7c0-.1,0-.3,0-.4,0-.3-.2-.3-.6-.3v-.2h1.8v.2c-.3,0-.4,0-.5.6l-.4,1.5h-.2c0,0,0-.1,0-.2,0-.1,0-.2-.1-.2s0,0-.3.1c-.4.3-.8.4-1.3.4-1.2,0-1.9-.6-1.9-1.7,0-1.7,1.3-3.8,3.3-3.8.5,0,.9.1,1.2.5,0,0,0,0,.1,0,0,0,.2-.1.3-.5h.2c-.2.6-.4,1.1-.5,1.7h-.2c0-.2,0-.4,0-.6,0-.2,0-.4,0-.5-.3-.4-.7-.6-1.2-.6-1.7,0-2.5,2.5-2.5,3.9s.4,1.3,1.3,1.3c.3,0,.6,0,.9-.2"/>
      <path class="st0" d="M67.3,62c.6,0,1,.4,1,1.2s-.8,2.9-2.2,2.9-1-.4-1-1.2.8-2.9,2.2-2.9M65.8,65.3c0,.4.1.7.4.7.8,0,1.5-1.8,1.5-3.1s-.2-.7-.4-.7c-.8,0-1.5,1.8-1.5,3.1"/>
      <path class="st0" d="M70.8,67h0c.4-.3.7-.7.8-1.1-.1.1-.2.2-.4.2-.1,0-.3,0-.3-.2,0,0,0,0,0,0,0-.4.3-.7.7-.7.2,0,.3.2.3.4,0,.7-.5,1.2-1.1,1.4"/>
      <path class="st0" d="M80.1,65.1c0,.5.2.7.5.7.5,0,.9-.3,1.1-.8h.2c-.3.6-.9,1-1.5,1.1-.6,0-1-.4-1-1.1,0-1.2.8-3,2.2-3s.8.2.8.6c0,.3-.2.6-.5.6-.2,0-.3,0-.3-.2,0,0,0,0,0,0,0-.3.3-.5.6-.6-.1-.2-.3-.2-.5-.2-.8,0-1.6,1.3-1.6,2.9"/>
      <path class="st0" d="M88.2,65.3c-.2.6-.6.8-.9.8s-.5-.2-.5-.5c0-.2,0-.4.1-.6l.7-2.1c0-.1,0-.2,0-.4,0-.1,0-.2-.2-.2,0,0,0,0,0,0-.6,0-1.3,1.1-1.8,2.8l-.3.9h-.7l1.5-5c0,0,0-.1,0-.2,0-.2-.1-.3-.5-.3v-.2c.5,0,.9,0,1.3-.3l-1,3.7c.6-1.2,1.1-1.7,1.7-1.7s.6.2.6.6c0,.2,0,.4-.1.6l-.7,2.2c0,0,0,.2,0,.3,0,0,0,.2.1.2,0,0,0,0,0,0,.2,0,.4-.2.6-.8v-.3h.2l-.2.6Z"/>
      <path class="st0" d="M94.6,64.8l-.2.6c-.2.6-.6.8-.9.8-.2,0-.3,0-.4-.2,0,0,0-.2,0-.3,0-.2,0-.4.1-.6v-.5c-.4,1.2-.9,1.6-1.4,1.6s-.7-.4-.7-.9c0-1.2,1.1-3.1,2.2-3.1s.4.2.5.6v-.5c.4,0,.6,0,.8,0l-.9,3.3c0,0,0,.2,0,.3,0,0,0,.2.2.2s.4-.2.6-.8v-.3h.2ZM93.6,63.5v-.5c.1,0,.1-.2.1-.2,0-.4-.1-.7-.4-.7-.7,0-1.5,1.8-1.5,3.1s0,.6.3.6c.4,0,1.2-1.1,1.5-2.3"/>
      <path class="st0" d="M101,65.3c-.2.6-.6.8-.9.8-.2,0-.4,0-.5-.2,0,0,0-.2,0-.2,0-.2,0-.4.1-.6l.7-2.1c0-.1,0-.2,0-.4,0-.1,0-.2-.2-.2-.6,0-1.4,1.4-2,3.2v.5h-.8l.9-3.2c0,0,0-.2,0-.3,0,0,0-.2-.2-.2s-.4.2-.6.8v.3h-.2l.2-.5c.2-.6.6-.8.9-.8.2,0,.4.1.4.3,0,0,0,0,0,.1,0,.2,0,.4-.1.6l-.2,1c.6-1.5,1.2-2.1,1.9-2.1s.6.2.6.6c0,.2,0,.4-.1.6l-.7,2.2c0,0,0,.2,0,.3,0,.1,0,.2.2.2s.4-.2.6-.8v-.3h.2l-.2.6Z"/>
      <path class="st0" d="M107.6,61.6c0,.2-.2.4-.4.4-.1,0-.2,0-.2-.2,0,0,0,0,0,0,0,0,0-.2,0-.3h0c0,0-.1,0-.2,0-.2.1-.3.3-.4.5.3,0,.6.4.6.8,0,.8-.7,1.4-1.5,1.5-.4.2-.9.4-.9.6s.2.2.4.2h.5c.5.3.8.4.8.8,0,.5-.7,1.4-2.2,1.4s-1.1-.2-1.1-.5.3-.7,1.3-1.1c-.2,0-.3-.2-.3-.4,0-.3.2-.6,1.2-1-.6,0-1-.3-1-.8,0-.9.8-1.6,1.7-1.5,0,0,0,0,0,0,.1,0,.3,0,.4,0,.1-.2.3-.4.5-.6.1,0,.3-.2.5-.2.2,0,.3,0,.3.3M104.5,65.9c-.7.4-.8.7-.8.9s.3.6.7.6c.7,0,1.5-.4,1.5-1s-.2-.2-.4-.2l-1-.2ZM106.3,62.7c0-.3,0-.5-.4-.5-.8,0-1,1.4-1,1.6s.2.5.4.5c.8,0,1-1,1-1.6"/>
      <path class="st0" d="M110.3,64.3c0,.2,0,.5,0,.7,0,.5.2.7.5.7.5,0,.9-.3,1.2-.7h.1c-.3.6-.9,1-1.5,1.1-.5,0-1-.3-1-.8,0,0,0-.2,0-.2,0-1.1,1-3,2.5-3,.3,0,.5.1.5.4,0,0,0,0,0,0,0,.9-1.4,1.5-2.2,1.8M110.3,64.2c.4-.1.7-.3,1-.5.4-.3.6-.7.6-1.2,0-.3,0-.3-.1-.3-.5,0-1.2.9-1.5,2"/>
      <path class="st0" d="M119.9,65.4c0,0,0,.1,0,.2,0,.2.1.3.3.3,0,0,0,0,0,0,.2,0,.4-.1.7-.8v-.3h.2l-.2.5c-.2.7-.6.8-1,.8s-.7-.2-.7-.6c0-.1,0-.3,0-.4l.8-2.8h-.7v-.2h.7l.3-1.1c.2,0,.5,0,.7-.1l-.4,1.2h1v.2h-1l-.9,3.1Z"/>
      <path class="st0" d="M127.3,65.3c-.2.6-.6.8-.9.8s-.5-.2-.5-.5c0-.2,0-.4.1-.6l.7-2.1c0-.1,0-.2,0-.4,0-.1,0-.2-.2-.2,0,0,0,0,0,0-.6,0-1.3,1.1-1.8,2.8l-.3.9h-.7l1.5-5c0,0,0-.1,0-.2,0-.2-.1-.3-.5-.3v-.2c.5,0,.9,0,1.3-.3l-1.1,3.7c.6-1.2,1.1-1.7,1.7-1.7s.6.2.6.6c0,.2,0,.4-.1.6l-.7,2.2c0,0,0,.2,0,.3,0,.1,0,.2.2.2s.4-.2.6-.8v-.3h.2v.6Z"/>
      <path class="st0" d="M131,64.3c0,.2,0,.5,0,.7,0,.5.2.7.5.7.5,0,.9-.3,1.1-.7h.1c-.3.6-.9,1-1.5,1.1-.5,0-1-.3-1-.8,0,0,0-.1,0-.2,0-1.1,1-3,2.5-3,.3,0,.5.2.5.4,0,0,0,0,0,0,0,.9-1.4,1.5-2.2,1.8M131,64.2c.4-.1.7-.3,1-.5.4-.3.6-.7.6-1.2,0-.3,0-.3-.1-.3-.5,0-1.2.9-1.5,2"/>
      <path class="st0" d="M144.4,63.5c0,1.1-.5,2.5-1.8,2.5-.3,0-.7-.2-.8-.5-.3.3-.6.4-1,.5-.4,0-.9-.2-.9-.7,0,0,0-.1,0-.2,0-.9,1.2-2,2.1-2.8-.2.2-.5.3-.7.3-.2,0-.3-.2-.5-.2s-.2.1-.4.5v.3h-.2l.2-.5c.2-.6.4-.8.7-.8s.4.3.7.3c.2,0,.4,0,.6-.2v-.2c.1,0,.2,0,.2,0-1,.9-2,2-2,3.2s.2.7.4.7c.3,0,.6-.1.8-.3,0-.1,0-.3,0-.4,0-.9.7-1.8,1.1-1.8s.3.3.3.5c0,.6-.3,1.2-.9,1.6,0,.3.3.5.6.5,1,0,1.5-1.4,1.5-2.3,0-.2,0-.3,0-.5-.3,0-.7-.2-.7-.7,0-.2.1-.3.3-.4,0,0,0,0,0,0,.3,0,.5.4.6.9,0,.2,0,.4,0,.6M142.1,64.8c0,.2,0,.3,0,.5.4-.4.7-.9.7-1.4,0-.2,0-.4-.1-.4s-.6.7-.6,1.3"/>
      <path class="st0" d="M149.4,62c.6,0,1,.4,1,1.2s-.8,2.9-2.2,2.9-1-.4-1-1.2.8-2.9,2.2-2.9M147.9,65.3c0,.4.1.7.4.7.8,0,1.5-1.8,1.5-3.1s-.1-.7-.4-.7c-.8,0-1.5,1.8-1.5,3.1"/>
      <path class="st0" d="M156.4,62.5c0,.3-.2.5-.5.5-.1,0-.3,0-.3-.2,0,0,0,0,0,0,0-.2.1-.4.3-.5,0,0,0,0,0,0-.6,0-1.2,1.3-1.8,3.1l-.2.6h-.6l.9-3.2c0,0,0-.2,0-.3,0-.1,0-.2-.2-.2s-.4.2-.6.8v.3h-.2l.2-.5c.2-.6.6-.8.9-.8.2,0,.4.1.4.3,0,0,0,0,0,.1,0,.2,0,.4-.1.6l-.2,1c.5-1.5,1-2,1.6-2,.2,0,.4.2.4.4,0,0,0,0,0,0"/>
      <path class="st0" d="M159.2,65.4c0,0,0,.2,0,.3,0,.1,0,.2.2.2s.4-.2.6-.8v-.3h.2l-.2.6c-.2.6-.5.8-.9.8s-.5-.2-.5-.5c0-.2,0-.4.1-.6l1.2-4c0,0,0-.1,0-.2,0-.2-.1-.3-.5-.3v-.2c.5,0,1-.1,1.4-.3l-1.5,5.3Z"/>
      <path class="st0" d="M166.5,64.8l-.2.6c-.2.6-.6.8-.9.8-.2,0-.4-.1-.5-.4,0,0,0,0,0-.1,0-.2,0-.4.1-.6v-.4c-.4,1-.9,1.4-1.4,1.4s-.8-.3-.8-1c0-1.2,1-3.1,2.4-3.1.2,0,.4.1.5.4l.4-1.4c0,0,0-.1,0-.2,0-.2-.1-.3-.5-.3v-.2c.5,0,1-.1,1.4-.3l-1.5,5.3c0,0,0,.2,0,.2,0,.1,0,.2.2.2s.4-.2.6-.8v-.3c0,0,.2,0,.2,0ZM165.5,63.6l.3-1c0-.3-.2-.4-.4-.4-1,0-1.8,1.8-1.8,3s.1.7.3.7c.4,0,1.2-1,1.6-2.2"/>
    </g>
  </g>
</svg>